%TF.GenerationSoftware,KiCad,Pcbnew,(6.0.9)*%
%TF.CreationDate,2022-12-02T16:15:21-08:00*%
%TF.ProjectId,Byte4066,42797465-3430-4363-962e-6b696361645f,rev?*%
%TF.SameCoordinates,Original*%
%TF.FileFunction,Legend,Top*%
%TF.FilePolarity,Positive*%
%FSLAX46Y46*%
G04 Gerber Fmt 4.6, Leading zero omitted, Abs format (unit mm)*
G04 Created by KiCad (PCBNEW (6.0.9)) date 2022-12-02 16:15:21*
%MOMM*%
%LPD*%
G01*
G04 APERTURE LIST*
G04 Aperture macros list*
%AMRoundRect*
0 Rectangle with rounded corners*
0 $1 Rounding radius*
0 $2 $3 $4 $5 $6 $7 $8 $9 X,Y pos of 4 corners*
0 Add a 4 corners polygon primitive as box body*
4,1,4,$2,$3,$4,$5,$6,$7,$8,$9,$2,$3,0*
0 Add four circle primitives for the rounded corners*
1,1,$1+$1,$2,$3*
1,1,$1+$1,$4,$5*
1,1,$1+$1,$6,$7*
1,1,$1+$1,$8,$9*
0 Add four rect primitives between the rounded corners*
20,1,$1+$1,$2,$3,$4,$5,0*
20,1,$1+$1,$4,$5,$6,$7,0*
20,1,$1+$1,$6,$7,$8,$9,0*
20,1,$1+$1,$8,$9,$2,$3,0*%
G04 Aperture macros list end*
%ADD10C,0.150000*%
%ADD11C,0.120000*%
%ADD12C,0.010000*%
%ADD13C,1.152000*%
%ADD14RoundRect,0.381000X0.762000X0.381000X-0.762000X0.381000X-0.762000X-0.381000X0.762000X-0.381000X0*%
%ADD15R,1.700000X1.700000*%
%ADD16O,1.700000X1.700000*%
%ADD17R,0.800000X0.500000*%
%ADD18R,0.800000X0.400000*%
%ADD19RoundRect,0.150000X-0.825000X-0.150000X0.825000X-0.150000X0.825000X0.150000X-0.825000X0.150000X0*%
G04 APERTURE END LIST*
D10*
X155011428Y-111053571D02*
X155154285Y-111101190D01*
X155201904Y-111148809D01*
X155249523Y-111244047D01*
X155249523Y-111386904D01*
X155201904Y-111482142D01*
X155154285Y-111529761D01*
X155059047Y-111577380D01*
X154678095Y-111577380D01*
X154678095Y-110577380D01*
X155011428Y-110577380D01*
X155106666Y-110625000D01*
X155154285Y-110672619D01*
X155201904Y-110767857D01*
X155201904Y-110863095D01*
X155154285Y-110958333D01*
X155106666Y-111005952D01*
X155011428Y-111053571D01*
X154678095Y-111053571D01*
X152161904Y-111291666D02*
X152638095Y-111291666D01*
X152066666Y-111577380D02*
X152400000Y-110577380D01*
X152733333Y-111577380D01*
X150447380Y-108672380D02*
X150542619Y-108672380D01*
X150637857Y-108720000D01*
X150685476Y-108767619D01*
X150733095Y-108862857D01*
X150780714Y-109053333D01*
X150780714Y-109291428D01*
X150733095Y-109481904D01*
X150685476Y-109577142D01*
X150637857Y-109624761D01*
X150542619Y-109672380D01*
X150447380Y-109672380D01*
X150352142Y-109624761D01*
X150304523Y-109577142D01*
X150256904Y-109481904D01*
X150209285Y-109291428D01*
X150209285Y-109053333D01*
X150256904Y-108862857D01*
X150304523Y-108767619D01*
X150352142Y-108720000D01*
X150447380Y-108672380D01*
X150780714Y-107132380D02*
X150209285Y-107132380D01*
X150495000Y-107132380D02*
X150495000Y-106132380D01*
X150399761Y-106275238D01*
X150304523Y-106370476D01*
X150209285Y-106418095D01*
X150209285Y-103687619D02*
X150256904Y-103640000D01*
X150352142Y-103592380D01*
X150590238Y-103592380D01*
X150685476Y-103640000D01*
X150733095Y-103687619D01*
X150780714Y-103782857D01*
X150780714Y-103878095D01*
X150733095Y-104020952D01*
X150161666Y-104592380D01*
X150780714Y-104592380D01*
X150161666Y-101052380D02*
X150780714Y-101052380D01*
X150447380Y-101433333D01*
X150590238Y-101433333D01*
X150685476Y-101480952D01*
X150733095Y-101528571D01*
X150780714Y-101623809D01*
X150780714Y-101861904D01*
X150733095Y-101957142D01*
X150685476Y-102004761D01*
X150590238Y-102052380D01*
X150304523Y-102052380D01*
X150209285Y-102004761D01*
X150161666Y-101957142D01*
X150685476Y-98845714D02*
X150685476Y-99512380D01*
X150447380Y-98464761D02*
X150209285Y-99179047D01*
X150828333Y-99179047D01*
X150733095Y-95972380D02*
X150256904Y-95972380D01*
X150209285Y-96448571D01*
X150256904Y-96400952D01*
X150352142Y-96353333D01*
X150590238Y-96353333D01*
X150685476Y-96400952D01*
X150733095Y-96448571D01*
X150780714Y-96543809D01*
X150780714Y-96781904D01*
X150733095Y-96877142D01*
X150685476Y-96924761D01*
X150590238Y-96972380D01*
X150352142Y-96972380D01*
X150256904Y-96924761D01*
X150209285Y-96877142D01*
X150685476Y-93432380D02*
X150495000Y-93432380D01*
X150399761Y-93480000D01*
X150352142Y-93527619D01*
X150256904Y-93670476D01*
X150209285Y-93860952D01*
X150209285Y-94241904D01*
X150256904Y-94337142D01*
X150304523Y-94384761D01*
X150399761Y-94432380D01*
X150590238Y-94432380D01*
X150685476Y-94384761D01*
X150733095Y-94337142D01*
X150780714Y-94241904D01*
X150780714Y-94003809D01*
X150733095Y-93908571D01*
X150685476Y-93860952D01*
X150590238Y-93813333D01*
X150399761Y-93813333D01*
X150304523Y-93860952D01*
X150256904Y-93908571D01*
X150209285Y-94003809D01*
X150161666Y-90892380D02*
X150828333Y-90892380D01*
X150399761Y-91892380D01*
X139335714Y-113434761D02*
X139240476Y-113482380D01*
X139050000Y-113482380D01*
X138954761Y-113434761D01*
X138907142Y-113387142D01*
X138859523Y-113291904D01*
X138859523Y-113006190D01*
X138907142Y-112910952D01*
X138954761Y-112863333D01*
X139050000Y-112815714D01*
X139240476Y-112815714D01*
X139335714Y-112863333D01*
X139764285Y-113482380D02*
X139764285Y-112482380D01*
X139859523Y-113101428D02*
X140145238Y-113482380D01*
X140145238Y-112815714D02*
X139764285Y-113196666D01*
X141002380Y-113482380D02*
X141002380Y-112482380D01*
X141002380Y-113434761D02*
X140907142Y-113482380D01*
X140716666Y-113482380D01*
X140621428Y-113434761D01*
X140573809Y-113387142D01*
X140526190Y-113291904D01*
X140526190Y-113006190D01*
X140573809Y-112910952D01*
X140621428Y-112863333D01*
X140716666Y-112815714D01*
X140907142Y-112815714D01*
X141002380Y-112863333D01*
X141478571Y-113387142D02*
X141526190Y-113434761D01*
X141478571Y-113482380D01*
X141430952Y-113434761D01*
X141478571Y-113387142D01*
X141478571Y-113482380D01*
X141811904Y-112815714D02*
X142192857Y-112815714D01*
X141954761Y-112482380D02*
X141954761Y-113339523D01*
X142002380Y-113434761D01*
X142097619Y-113482380D01*
X142192857Y-113482380D01*
X142907142Y-113434761D02*
X142811904Y-113482380D01*
X142621428Y-113482380D01*
X142526190Y-113434761D01*
X142478571Y-113339523D01*
X142478571Y-112958571D01*
X142526190Y-112863333D01*
X142621428Y-112815714D01*
X142811904Y-112815714D01*
X142907142Y-112863333D01*
X142954761Y-112958571D01*
X142954761Y-113053809D01*
X142478571Y-113149047D01*
X143811904Y-113434761D02*
X143716666Y-113482380D01*
X143526190Y-113482380D01*
X143430952Y-113434761D01*
X143383333Y-113387142D01*
X143335714Y-113291904D01*
X143335714Y-113006190D01*
X143383333Y-112910952D01*
X143430952Y-112863333D01*
X143526190Y-112815714D01*
X143716666Y-112815714D01*
X143811904Y-112863333D01*
X144240476Y-113482380D02*
X144240476Y-112482380D01*
X144669047Y-113482380D02*
X144669047Y-112958571D01*
X144621428Y-112863333D01*
X144526190Y-112815714D01*
X144383333Y-112815714D01*
X144288095Y-112863333D01*
X144240476Y-112910952D01*
X145859523Y-112434761D02*
X145002380Y-113720476D01*
X146192857Y-113482380D02*
X146192857Y-112482380D01*
X146192857Y-112863333D02*
X146288095Y-112815714D01*
X146478571Y-112815714D01*
X146573809Y-112863333D01*
X146621428Y-112910952D01*
X146669047Y-113006190D01*
X146669047Y-113291904D01*
X146621428Y-113387142D01*
X146573809Y-113434761D01*
X146478571Y-113482380D01*
X146288095Y-113482380D01*
X146192857Y-113434761D01*
X147526190Y-112815714D02*
X147526190Y-113482380D01*
X147288095Y-112434761D02*
X147050000Y-113149047D01*
X147669047Y-113149047D01*
X148240476Y-112482380D02*
X148335714Y-112482380D01*
X148430952Y-112530000D01*
X148478571Y-112577619D01*
X148526190Y-112672857D01*
X148573809Y-112863333D01*
X148573809Y-113101428D01*
X148526190Y-113291904D01*
X148478571Y-113387142D01*
X148430952Y-113434761D01*
X148335714Y-113482380D01*
X148240476Y-113482380D01*
X148145238Y-113434761D01*
X148097619Y-113387142D01*
X148050000Y-113291904D01*
X148002380Y-113101428D01*
X148002380Y-112863333D01*
X148050000Y-112672857D01*
X148097619Y-112577619D01*
X148145238Y-112530000D01*
X148240476Y-112482380D01*
X149430952Y-112482380D02*
X149240476Y-112482380D01*
X149145238Y-112530000D01*
X149097619Y-112577619D01*
X149002380Y-112720476D01*
X148954761Y-112910952D01*
X148954761Y-113291904D01*
X149002380Y-113387142D01*
X149050000Y-113434761D01*
X149145238Y-113482380D01*
X149335714Y-113482380D01*
X149430952Y-113434761D01*
X149478571Y-113387142D01*
X149526190Y-113291904D01*
X149526190Y-113053809D01*
X149478571Y-112958571D01*
X149430952Y-112910952D01*
X149335714Y-112863333D01*
X149145238Y-112863333D01*
X149050000Y-112910952D01*
X149002380Y-112958571D01*
X148954761Y-113053809D01*
X150383333Y-112482380D02*
X150192857Y-112482380D01*
X150097619Y-112530000D01*
X150050000Y-112577619D01*
X149954761Y-112720476D01*
X149907142Y-112910952D01*
X149907142Y-113291904D01*
X149954761Y-113387142D01*
X150002380Y-113434761D01*
X150097619Y-113482380D01*
X150288095Y-113482380D01*
X150383333Y-113434761D01*
X150430952Y-113387142D01*
X150478571Y-113291904D01*
X150478571Y-113053809D01*
X150430952Y-112958571D01*
X150383333Y-112910952D01*
X150288095Y-112863333D01*
X150097619Y-112863333D01*
X150002380Y-112910952D01*
X149954761Y-112958571D01*
X149907142Y-113053809D01*
X151621428Y-112434761D02*
X150764285Y-113720476D01*
X151859523Y-112815714D02*
X152097619Y-113482380D01*
X152335714Y-112815714D01*
X153240476Y-113482380D02*
X152669047Y-113482380D01*
X152954761Y-113482380D02*
X152954761Y-112482380D01*
X152859523Y-112625238D01*
X152764285Y-112720476D01*
X152669047Y-112768095D01*
X141399047Y-87340952D02*
X141303809Y-87293333D01*
X141256190Y-87245714D01*
X141208571Y-87150476D01*
X141208571Y-87102857D01*
X141256190Y-87007619D01*
X141303809Y-86960000D01*
X141399047Y-86912380D01*
X141589523Y-86912380D01*
X141684761Y-86960000D01*
X141732380Y-87007619D01*
X141780000Y-87102857D01*
X141780000Y-87150476D01*
X141732380Y-87245714D01*
X141684761Y-87293333D01*
X141589523Y-87340952D01*
X141399047Y-87340952D01*
X141303809Y-87388571D01*
X141256190Y-87436190D01*
X141208571Y-87531428D01*
X141208571Y-87721904D01*
X141256190Y-87817142D01*
X141303809Y-87864761D01*
X141399047Y-87912380D01*
X141589523Y-87912380D01*
X141684761Y-87864761D01*
X141732380Y-87817142D01*
X141780000Y-87721904D01*
X141780000Y-87531428D01*
X141732380Y-87436190D01*
X141684761Y-87388571D01*
X141589523Y-87340952D01*
X142113333Y-87912380D02*
X142637142Y-87245714D01*
X142113333Y-87245714D02*
X142637142Y-87912380D01*
X143732380Y-87626666D02*
X144208571Y-87626666D01*
X143637142Y-87912380D02*
X143970476Y-86912380D01*
X144303809Y-87912380D01*
X144637142Y-87245714D02*
X144637142Y-87912380D01*
X144637142Y-87340952D02*
X144684761Y-87293333D01*
X144780000Y-87245714D01*
X144922857Y-87245714D01*
X145018095Y-87293333D01*
X145065714Y-87388571D01*
X145065714Y-87912380D01*
X145970476Y-87912380D02*
X145970476Y-87388571D01*
X145922857Y-87293333D01*
X145827619Y-87245714D01*
X145637142Y-87245714D01*
X145541904Y-87293333D01*
X145970476Y-87864761D02*
X145875238Y-87912380D01*
X145637142Y-87912380D01*
X145541904Y-87864761D01*
X145494285Y-87769523D01*
X145494285Y-87674285D01*
X145541904Y-87579047D01*
X145637142Y-87531428D01*
X145875238Y-87531428D01*
X145970476Y-87483809D01*
X146589523Y-87912380D02*
X146494285Y-87864761D01*
X146446666Y-87769523D01*
X146446666Y-86912380D01*
X147113333Y-87912380D02*
X147018095Y-87864761D01*
X146970476Y-87817142D01*
X146922857Y-87721904D01*
X146922857Y-87436190D01*
X146970476Y-87340952D01*
X147018095Y-87293333D01*
X147113333Y-87245714D01*
X147256190Y-87245714D01*
X147351428Y-87293333D01*
X147399047Y-87340952D01*
X147446666Y-87436190D01*
X147446666Y-87721904D01*
X147399047Y-87817142D01*
X147351428Y-87864761D01*
X147256190Y-87912380D01*
X147113333Y-87912380D01*
X148303809Y-87245714D02*
X148303809Y-88055238D01*
X148256190Y-88150476D01*
X148208571Y-88198095D01*
X148113333Y-88245714D01*
X147970476Y-88245714D01*
X147875238Y-88198095D01*
X148303809Y-87864761D02*
X148208571Y-87912380D01*
X148018095Y-87912380D01*
X147922857Y-87864761D01*
X147875238Y-87817142D01*
X147827619Y-87721904D01*
X147827619Y-87436190D01*
X147875238Y-87340952D01*
X147922857Y-87293333D01*
X148018095Y-87245714D01*
X148208571Y-87245714D01*
X148303809Y-87293333D01*
X142113333Y-89474761D02*
X142256190Y-89522380D01*
X142494285Y-89522380D01*
X142589523Y-89474761D01*
X142637142Y-89427142D01*
X142684761Y-89331904D01*
X142684761Y-89236666D01*
X142637142Y-89141428D01*
X142589523Y-89093809D01*
X142494285Y-89046190D01*
X142303809Y-88998571D01*
X142208571Y-88950952D01*
X142160952Y-88903333D01*
X142113333Y-88808095D01*
X142113333Y-88712857D01*
X142160952Y-88617619D01*
X142208571Y-88570000D01*
X142303809Y-88522380D01*
X142541904Y-88522380D01*
X142684761Y-88570000D01*
X143018095Y-88855714D02*
X143208571Y-89522380D01*
X143399047Y-89046190D01*
X143589523Y-89522380D01*
X143780000Y-88855714D01*
X144160952Y-89522380D02*
X144160952Y-88855714D01*
X144160952Y-88522380D02*
X144113333Y-88570000D01*
X144160952Y-88617619D01*
X144208571Y-88570000D01*
X144160952Y-88522380D01*
X144160952Y-88617619D01*
X144494285Y-88855714D02*
X144875238Y-88855714D01*
X144637142Y-88522380D02*
X144637142Y-89379523D01*
X144684761Y-89474761D01*
X144780000Y-89522380D01*
X144875238Y-89522380D01*
X145637142Y-89474761D02*
X145541904Y-89522380D01*
X145351428Y-89522380D01*
X145256190Y-89474761D01*
X145208571Y-89427142D01*
X145160952Y-89331904D01*
X145160952Y-89046190D01*
X145208571Y-88950952D01*
X145256190Y-88903333D01*
X145351428Y-88855714D01*
X145541904Y-88855714D01*
X145637142Y-88903333D01*
X146065714Y-89522380D02*
X146065714Y-88522380D01*
X146494285Y-89522380D02*
X146494285Y-88998571D01*
X146446666Y-88903333D01*
X146351428Y-88855714D01*
X146208571Y-88855714D01*
X146113333Y-88903333D01*
X146065714Y-88950952D01*
X147351428Y-89474761D02*
X147256190Y-89522380D01*
X147065714Y-89522380D01*
X146970476Y-89474761D01*
X146922857Y-89379523D01*
X146922857Y-88998571D01*
X146970476Y-88903333D01*
X147065714Y-88855714D01*
X147256190Y-88855714D01*
X147351428Y-88903333D01*
X147399047Y-88998571D01*
X147399047Y-89093809D01*
X146922857Y-89189047D01*
X147780000Y-89474761D02*
X147875238Y-89522380D01*
X148065714Y-89522380D01*
X148160952Y-89474761D01*
X148208571Y-89379523D01*
X148208571Y-89331904D01*
X148160952Y-89236666D01*
X148065714Y-89189047D01*
X147922857Y-89189047D01*
X147827619Y-89141428D01*
X147780000Y-89046190D01*
X147780000Y-88998571D01*
X147827619Y-88903333D01*
X147922857Y-88855714D01*
X148065714Y-88855714D01*
X148160952Y-88903333D01*
%TO.C,J2*%
X157721666Y-88622380D02*
X157721666Y-89336666D01*
X157674047Y-89479523D01*
X157578809Y-89574761D01*
X157435952Y-89622380D01*
X157340714Y-89622380D01*
X158150238Y-88717619D02*
X158197857Y-88670000D01*
X158293095Y-88622380D01*
X158531190Y-88622380D01*
X158626428Y-88670000D01*
X158674047Y-88717619D01*
X158721666Y-88812857D01*
X158721666Y-88908095D01*
X158674047Y-89050952D01*
X158102619Y-89622380D01*
X158721666Y-89622380D01*
D11*
X156380000Y-97790000D02*
X159040000Y-97790000D01*
X156380000Y-107950000D02*
X159040000Y-107950000D01*
X165040000Y-103760000D02*
X165040000Y-104520000D01*
X153442929Y-93600000D02*
X153897071Y-93600000D01*
X159040000Y-91240000D02*
X165040000Y-91240000D01*
X159040000Y-108840000D02*
X165040000Y-108840000D01*
X165040000Y-96900000D02*
X159040000Y-96900000D01*
X153442929Y-101220000D02*
X153897071Y-101220000D01*
X153442929Y-106300000D02*
X153897071Y-106300000D01*
X156380000Y-95250000D02*
X159040000Y-95250000D01*
X153442929Y-94360000D02*
X153897071Y-94360000D01*
X165040000Y-91060000D02*
X165040000Y-91820000D01*
X153442929Y-107060000D02*
X153897071Y-107060000D01*
X155982929Y-108840000D02*
X156380000Y-108840000D01*
X159040000Y-91600000D02*
X165040000Y-91600000D01*
X155982929Y-103760000D02*
X156380000Y-103760000D01*
X156380000Y-102870000D02*
X159040000Y-102870000D01*
X153442929Y-101980000D02*
X153897071Y-101980000D01*
X155982929Y-94360000D02*
X156380000Y-94360000D01*
X155982929Y-104520000D02*
X156380000Y-104520000D01*
X153442929Y-98680000D02*
X153897071Y-98680000D01*
X165040000Y-107060000D02*
X159040000Y-107060000D01*
X165040000Y-109600000D02*
X159040000Y-109600000D01*
X159040000Y-103760000D02*
X165040000Y-103760000D01*
X159040000Y-91120000D02*
X165040000Y-91120000D01*
X159040000Y-101220000D02*
X165040000Y-101220000D01*
X159040000Y-91480000D02*
X165040000Y-91480000D01*
X155982929Y-96140000D02*
X156380000Y-96140000D01*
X165040000Y-96140000D02*
X165040000Y-96900000D01*
X153510000Y-91820000D02*
X153897071Y-91820000D01*
X159040000Y-96140000D02*
X165040000Y-96140000D01*
X153442929Y-96140000D02*
X153897071Y-96140000D01*
X155982929Y-98680000D02*
X156380000Y-98680000D01*
X165040000Y-91820000D02*
X159040000Y-91820000D01*
X153510000Y-91060000D02*
X153897071Y-91060000D01*
X156380000Y-90110000D02*
X156380000Y-110550000D01*
X155982929Y-96900000D02*
X156380000Y-96900000D01*
X159040000Y-93600000D02*
X165040000Y-93600000D01*
X155982929Y-101980000D02*
X156380000Y-101980000D01*
X159040000Y-91720000D02*
X165040000Y-91720000D01*
X153442929Y-108840000D02*
X153897071Y-108840000D01*
X153442929Y-99440000D02*
X153897071Y-99440000D01*
X165040000Y-106300000D02*
X165040000Y-107060000D01*
X165040000Y-101220000D02*
X165040000Y-101980000D01*
X165040000Y-99440000D02*
X159040000Y-99440000D01*
X151130000Y-91440000D02*
X151130000Y-90170000D01*
X156380000Y-100330000D02*
X159040000Y-100330000D01*
X155982929Y-107060000D02*
X156380000Y-107060000D01*
X155982929Y-101220000D02*
X156380000Y-101220000D01*
X155982929Y-93600000D02*
X156380000Y-93600000D01*
X156380000Y-105410000D02*
X159040000Y-105410000D01*
X159040000Y-90110000D02*
X156380000Y-90110000D01*
X165040000Y-101980000D02*
X159040000Y-101980000D01*
X159040000Y-91360000D02*
X165040000Y-91360000D01*
X159040000Y-106300000D02*
X165040000Y-106300000D01*
X153442929Y-104520000D02*
X153897071Y-104520000D01*
X156380000Y-110550000D02*
X159040000Y-110550000D01*
X165040000Y-104520000D02*
X159040000Y-104520000D01*
X151130000Y-90170000D02*
X152400000Y-90170000D01*
X159040000Y-110550000D02*
X159040000Y-90110000D01*
X155982929Y-91820000D02*
X156380000Y-91820000D01*
X165040000Y-94360000D02*
X159040000Y-94360000D01*
X155982929Y-99440000D02*
X156380000Y-99440000D01*
X153442929Y-96900000D02*
X153897071Y-96900000D01*
X153442929Y-109600000D02*
X153897071Y-109600000D01*
X155982929Y-106300000D02*
X156380000Y-106300000D01*
X156380000Y-92710000D02*
X159040000Y-92710000D01*
X165040000Y-98680000D02*
X165040000Y-99440000D01*
X153442929Y-103760000D02*
X153897071Y-103760000D01*
X155982929Y-91060000D02*
X156380000Y-91060000D01*
X165040000Y-108840000D02*
X165040000Y-109600000D01*
X159040000Y-98680000D02*
X165040000Y-98680000D01*
X159040000Y-91060000D02*
X165040000Y-91060000D01*
X155982929Y-109600000D02*
X156380000Y-109600000D01*
X165040000Y-93600000D02*
X165040000Y-94360000D01*
%TO.C,RN2*%
X139835000Y-94390000D02*
X140835000Y-94390000D01*
X139835000Y-91030000D02*
X140835000Y-91030000D01*
%TO.C,RN1*%
X139835000Y-104550000D02*
X140835000Y-104550000D01*
X139835000Y-101190000D02*
X140835000Y-101190000D01*
%TO.C,U1*%
X146050000Y-90815000D02*
X142600000Y-90815000D01*
X146050000Y-99685000D02*
X144100000Y-99685000D01*
X146050000Y-90815000D02*
X148000000Y-90815000D01*
X146050000Y-99685000D02*
X148000000Y-99685000D01*
%TO.C,J1*%
X133265000Y-110490000D02*
X133265000Y-87570000D01*
X135925000Y-87570000D02*
X133265000Y-87570000D01*
X135925000Y-110490000D02*
X135925000Y-87570000D01*
X135925000Y-110490000D02*
X133265000Y-110490000D01*
X134595000Y-113090000D02*
X133265000Y-113090000D01*
X133265000Y-113090000D02*
X133265000Y-111760000D01*
%TO.C,U2*%
X146050000Y-100975000D02*
X148000000Y-100975000D01*
X146050000Y-109845000D02*
X148000000Y-109845000D01*
X146050000Y-100975000D02*
X142600000Y-100975000D01*
X146050000Y-109845000D02*
X144100000Y-109845000D01*
%TD*%
%LPC*%
%TO.C,G\u002A\u002A\u002A*%
G36*
X150919564Y-87252271D02*
G01*
X150945508Y-87253488D01*
X150970124Y-87255595D01*
X150994568Y-87258681D01*
X151019999Y-87262837D01*
X151037168Y-87266069D01*
X151062517Y-87271313D01*
X151086699Y-87276924D01*
X151110431Y-87283132D01*
X151134429Y-87290164D01*
X151159412Y-87298250D01*
X151186095Y-87307618D01*
X151215196Y-87318498D01*
X151247433Y-87331118D01*
X151271820Y-87340936D01*
X151304200Y-87354238D01*
X151337073Y-87368047D01*
X151370715Y-87382494D01*
X151405404Y-87397708D01*
X151441417Y-87413820D01*
X151479031Y-87430959D01*
X151518524Y-87449255D01*
X151560172Y-87468839D01*
X151604253Y-87489840D01*
X151651044Y-87512389D01*
X151700822Y-87536615D01*
X151753864Y-87562648D01*
X151810448Y-87590619D01*
X151870850Y-87620657D01*
X151910459Y-87640436D01*
X151966490Y-87668404D01*
X152018559Y-87694279D01*
X152066988Y-87718209D01*
X152112102Y-87740343D01*
X152154224Y-87760830D01*
X152193679Y-87779819D01*
X152230790Y-87797457D01*
X152265881Y-87813895D01*
X152299276Y-87829280D01*
X152331299Y-87843762D01*
X152362273Y-87857489D01*
X152392524Y-87870610D01*
X152422374Y-87883274D01*
X152452148Y-87895629D01*
X152482169Y-87907825D01*
X152512761Y-87920009D01*
X152544249Y-87932331D01*
X152556029Y-87936892D01*
X152572479Y-87943261D01*
X152587757Y-87949205D01*
X152601184Y-87954460D01*
X152612085Y-87958759D01*
X152619780Y-87961837D01*
X152623479Y-87963374D01*
X152630453Y-87966501D01*
X152612374Y-87988146D01*
X152583873Y-88019827D01*
X152551092Y-88051893D01*
X152514528Y-88083967D01*
X152474680Y-88115672D01*
X152432044Y-88146630D01*
X152387117Y-88176464D01*
X152340398Y-88204796D01*
X152292384Y-88231249D01*
X152291143Y-88231898D01*
X152228462Y-88262677D01*
X152161875Y-88291709D01*
X152092059Y-88318797D01*
X152019691Y-88343741D01*
X151945448Y-88366345D01*
X151870008Y-88386410D01*
X151794046Y-88403739D01*
X151718242Y-88418134D01*
X151643271Y-88429396D01*
X151596876Y-88434783D01*
X151583122Y-88435864D01*
X151565842Y-88436713D01*
X151545936Y-88437329D01*
X151524304Y-88437713D01*
X151501847Y-88437865D01*
X151479465Y-88437784D01*
X151458058Y-88437470D01*
X151438527Y-88436924D01*
X151421772Y-88436145D01*
X151408693Y-88435133D01*
X151405771Y-88434803D01*
X151357644Y-88427101D01*
X151313278Y-88416442D01*
X151272693Y-88402833D01*
X151235913Y-88386281D01*
X151202956Y-88366793D01*
X151190357Y-88357808D01*
X151162485Y-88334111D01*
X151138707Y-88307997D01*
X151118783Y-88279136D01*
X151102472Y-88247199D01*
X151094275Y-88226296D01*
X151087956Y-88206987D01*
X151083438Y-88189431D01*
X151080478Y-88172095D01*
X151078830Y-88153448D01*
X151078252Y-88131961D01*
X151078248Y-88125593D01*
X151078385Y-88086576D01*
X151062590Y-88084957D01*
X151046795Y-88083339D01*
X151029736Y-88094946D01*
X151012676Y-88106553D01*
X151011971Y-88129534D01*
X151013042Y-88161744D01*
X151017967Y-88195431D01*
X151026445Y-88229588D01*
X151038179Y-88263208D01*
X151052870Y-88295285D01*
X151069657Y-88323962D01*
X151094193Y-88356774D01*
X151122306Y-88386339D01*
X151153984Y-88412649D01*
X151189212Y-88435697D01*
X151227975Y-88455476D01*
X151270260Y-88471978D01*
X151316051Y-88485197D01*
X151365335Y-88495126D01*
X151418098Y-88501756D01*
X151424165Y-88502288D01*
X151443351Y-88503440D01*
X151466266Y-88504063D01*
X151491833Y-88504181D01*
X151518974Y-88503821D01*
X151546613Y-88503010D01*
X151573672Y-88501773D01*
X151599074Y-88500135D01*
X151621742Y-88498124D01*
X151628696Y-88497353D01*
X151705758Y-88486672D01*
X151783900Y-88472752D01*
X151862359Y-88455807D01*
X151940372Y-88436049D01*
X152017179Y-88413691D01*
X152092018Y-88388945D01*
X152164126Y-88362024D01*
X152232742Y-88333141D01*
X152257519Y-88321800D01*
X152317409Y-88292174D01*
X152374890Y-88260605D01*
X152429644Y-88227323D01*
X152481355Y-88192560D01*
X152529708Y-88156548D01*
X152574385Y-88119519D01*
X152615071Y-88081703D01*
X152651449Y-88043332D01*
X152673167Y-88017539D01*
X152683329Y-88005158D01*
X152690981Y-87996607D01*
X152696308Y-87991697D01*
X152699493Y-87990240D01*
X152699730Y-87990285D01*
X152709725Y-87992780D01*
X152723746Y-87995610D01*
X152741003Y-87998661D01*
X152760705Y-88001818D01*
X152782062Y-88004969D01*
X152804283Y-88007997D01*
X152826576Y-88010789D01*
X152848152Y-88013231D01*
X152868220Y-88015208D01*
X152877762Y-88016012D01*
X152898511Y-88017203D01*
X152921492Y-88017670D01*
X152947009Y-88017395D01*
X152975366Y-88016358D01*
X153006869Y-88014543D01*
X153041823Y-88011929D01*
X153080531Y-88008500D01*
X153123300Y-88004236D01*
X153170433Y-87999119D01*
X153184981Y-87997471D01*
X153252135Y-87989370D01*
X153323732Y-87979916D01*
X153399583Y-87969144D01*
X153479497Y-87957088D01*
X153563283Y-87943784D01*
X153650750Y-87929265D01*
X153741708Y-87913566D01*
X153835966Y-87896722D01*
X153933333Y-87878769D01*
X154033619Y-87859740D01*
X154136632Y-87839670D01*
X154242183Y-87818594D01*
X154350080Y-87796547D01*
X154460133Y-87773564D01*
X154572152Y-87749679D01*
X154685945Y-87724926D01*
X154705352Y-87720657D01*
X154726975Y-87715927D01*
X154747593Y-87711482D01*
X154766624Y-87707445D01*
X154783484Y-87703935D01*
X154797589Y-87701074D01*
X154808356Y-87698982D01*
X154815202Y-87697780D01*
X154816629Y-87697585D01*
X154835403Y-87697642D01*
X154855267Y-87701479D01*
X154874974Y-87708639D01*
X154893279Y-87718666D01*
X154908935Y-87731103D01*
X154909424Y-87731581D01*
X154916801Y-87740057D01*
X154925869Y-87752486D01*
X154936370Y-87768394D01*
X154948044Y-87787306D01*
X154960631Y-87808748D01*
X154973871Y-87832247D01*
X154987504Y-87857328D01*
X155001272Y-87883518D01*
X155014913Y-87910341D01*
X155028169Y-87937324D01*
X155040780Y-87963993D01*
X155052485Y-87989874D01*
X155058472Y-88003666D01*
X155077315Y-88050939D01*
X155092317Y-88095460D01*
X155103473Y-88137204D01*
X155110779Y-88176151D01*
X155114234Y-88212277D01*
X155113833Y-88245560D01*
X155109574Y-88275977D01*
X155101922Y-88302272D01*
X155095352Y-88316166D01*
X155086051Y-88331192D01*
X155075218Y-88345659D01*
X155064050Y-88357874D01*
X155059947Y-88361590D01*
X155049394Y-88369757D01*
X155037999Y-88376968D01*
X155025387Y-88383298D01*
X155011185Y-88388822D01*
X154995021Y-88393616D01*
X154976521Y-88397756D01*
X154955313Y-88401316D01*
X154931022Y-88404373D01*
X154903277Y-88407002D01*
X154871703Y-88409278D01*
X154835928Y-88411277D01*
X154808162Y-88412554D01*
X154794605Y-88413088D01*
X154776894Y-88413715D01*
X154755714Y-88414415D01*
X154731747Y-88415168D01*
X154705677Y-88415951D01*
X154678188Y-88416745D01*
X154649962Y-88417528D01*
X154621684Y-88418281D01*
X154607381Y-88418648D01*
X154534719Y-88420565D01*
X154466484Y-88422528D01*
X154402266Y-88424558D01*
X154341652Y-88426674D01*
X154284233Y-88428897D01*
X154229597Y-88431247D01*
X154177333Y-88433745D01*
X154127031Y-88436410D01*
X154078279Y-88439262D01*
X154030667Y-88442322D01*
X153983783Y-88445611D01*
X153937217Y-88449147D01*
X153890557Y-88452952D01*
X153865943Y-88455059D01*
X153761434Y-88464875D01*
X153660971Y-88475858D01*
X153563873Y-88488149D01*
X153469460Y-88501888D01*
X153377053Y-88517215D01*
X153285972Y-88534270D01*
X153195536Y-88553195D01*
X153105066Y-88574128D01*
X153013882Y-88597210D01*
X152921303Y-88622582D01*
X152826651Y-88650384D01*
X152729245Y-88680757D01*
X152655210Y-88704897D01*
X152616363Y-88717856D01*
X152580412Y-88730038D01*
X152546965Y-88741626D01*
X152515630Y-88752802D01*
X152486014Y-88763748D01*
X152457726Y-88774647D01*
X152430374Y-88785682D01*
X152403565Y-88797035D01*
X152376908Y-88808888D01*
X152350011Y-88821425D01*
X152322481Y-88834827D01*
X152293927Y-88849277D01*
X152263956Y-88864959D01*
X152232176Y-88882053D01*
X152198196Y-88900743D01*
X152161624Y-88921212D01*
X152122066Y-88943641D01*
X152079132Y-88968213D01*
X152034724Y-88993788D01*
X152000306Y-89013624D01*
X151969607Y-89031252D01*
X151942175Y-89046919D01*
X151917562Y-89060873D01*
X151895318Y-89073363D01*
X151874993Y-89084636D01*
X151856136Y-89094941D01*
X151838299Y-89104525D01*
X151821031Y-89113636D01*
X151803882Y-89122523D01*
X151786404Y-89131433D01*
X151771048Y-89139162D01*
X151726259Y-89161051D01*
X151684576Y-89180225D01*
X151645282Y-89196930D01*
X151607658Y-89211415D01*
X151570986Y-89223927D01*
X151534550Y-89234716D01*
X151497629Y-89244028D01*
X151459508Y-89252111D01*
X151426955Y-89257979D01*
X151386308Y-89264412D01*
X151348878Y-89269468D01*
X151313278Y-89273258D01*
X151278120Y-89275896D01*
X151242020Y-89277492D01*
X151203589Y-89278158D01*
X151177171Y-89278149D01*
X151158939Y-89278012D01*
X151141766Y-89277835D01*
X151126402Y-89277630D01*
X151113598Y-89277407D01*
X151104102Y-89277178D01*
X151098667Y-89276955D01*
X151098552Y-89276947D01*
X151036121Y-89270765D01*
X150974537Y-89261409D01*
X150914390Y-89249029D01*
X150856264Y-89233776D01*
X150800747Y-89215800D01*
X150748426Y-89195253D01*
X150708886Y-89176875D01*
X150650028Y-89144716D01*
X150592684Y-89108002D01*
X150536906Y-89066788D01*
X150482747Y-89021130D01*
X150430259Y-88971086D01*
X150379494Y-88916710D01*
X150330504Y-88858060D01*
X150283342Y-88795192D01*
X150238060Y-88728161D01*
X150194710Y-88657024D01*
X150153344Y-88581837D01*
X150150377Y-88576140D01*
X150125001Y-88524703D01*
X150101334Y-88471393D01*
X150079132Y-88415569D01*
X150058147Y-88356594D01*
X150038134Y-88293827D01*
X150026818Y-88255234D01*
X150021630Y-88237002D01*
X149853124Y-88169030D01*
X149826054Y-88158076D01*
X149800329Y-88147600D01*
X149776297Y-88137746D01*
X149754304Y-88128662D01*
X149734699Y-88120491D01*
X149717827Y-88113380D01*
X149704038Y-88107474D01*
X149693676Y-88102918D01*
X149687091Y-88099859D01*
X149684628Y-88098441D01*
X149684619Y-88098409D01*
X149686385Y-88096437D01*
X149691507Y-88091490D01*
X149699724Y-88083808D01*
X149710775Y-88073629D01*
X149724396Y-88061189D01*
X149740327Y-88046728D01*
X149758305Y-88030482D01*
X149778069Y-88012690D01*
X149799357Y-87993590D01*
X149821906Y-87973419D01*
X149839438Y-87957777D01*
X149994257Y-87819794D01*
X150004116Y-87792558D01*
X150023546Y-87744507D01*
X150046344Y-87698631D01*
X150072790Y-87654513D01*
X150103162Y-87611736D01*
X150137739Y-87569883D01*
X150176801Y-87528536D01*
X150188039Y-87517515D01*
X150234198Y-87476250D01*
X150283975Y-87438069D01*
X150337189Y-87403064D01*
X150393659Y-87371324D01*
X150453203Y-87342941D01*
X150515639Y-87318004D01*
X150580785Y-87296605D01*
X150648460Y-87278835D01*
X150680057Y-87271972D01*
X150710501Y-87266050D01*
X150737739Y-87261407D01*
X150763186Y-87257888D01*
X150788256Y-87255335D01*
X150814364Y-87253592D01*
X150842925Y-87252501D01*
X150859067Y-87252143D01*
X150891136Y-87251853D01*
X150919564Y-87252271D01*
G37*
D12*
X150919564Y-87252271D02*
X150945508Y-87253488D01*
X150970124Y-87255595D01*
X150994568Y-87258681D01*
X151019999Y-87262837D01*
X151037168Y-87266069D01*
X151062517Y-87271313D01*
X151086699Y-87276924D01*
X151110431Y-87283132D01*
X151134429Y-87290164D01*
X151159412Y-87298250D01*
X151186095Y-87307618D01*
X151215196Y-87318498D01*
X151247433Y-87331118D01*
X151271820Y-87340936D01*
X151304200Y-87354238D01*
X151337073Y-87368047D01*
X151370715Y-87382494D01*
X151405404Y-87397708D01*
X151441417Y-87413820D01*
X151479031Y-87430959D01*
X151518524Y-87449255D01*
X151560172Y-87468839D01*
X151604253Y-87489840D01*
X151651044Y-87512389D01*
X151700822Y-87536615D01*
X151753864Y-87562648D01*
X151810448Y-87590619D01*
X151870850Y-87620657D01*
X151910459Y-87640436D01*
X151966490Y-87668404D01*
X152018559Y-87694279D01*
X152066988Y-87718209D01*
X152112102Y-87740343D01*
X152154224Y-87760830D01*
X152193679Y-87779819D01*
X152230790Y-87797457D01*
X152265881Y-87813895D01*
X152299276Y-87829280D01*
X152331299Y-87843762D01*
X152362273Y-87857489D01*
X152392524Y-87870610D01*
X152422374Y-87883274D01*
X152452148Y-87895629D01*
X152482169Y-87907825D01*
X152512761Y-87920009D01*
X152544249Y-87932331D01*
X152556029Y-87936892D01*
X152572479Y-87943261D01*
X152587757Y-87949205D01*
X152601184Y-87954460D01*
X152612085Y-87958759D01*
X152619780Y-87961837D01*
X152623479Y-87963374D01*
X152630453Y-87966501D01*
X152612374Y-87988146D01*
X152583873Y-88019827D01*
X152551092Y-88051893D01*
X152514528Y-88083967D01*
X152474680Y-88115672D01*
X152432044Y-88146630D01*
X152387117Y-88176464D01*
X152340398Y-88204796D01*
X152292384Y-88231249D01*
X152291143Y-88231898D01*
X152228462Y-88262677D01*
X152161875Y-88291709D01*
X152092059Y-88318797D01*
X152019691Y-88343741D01*
X151945448Y-88366345D01*
X151870008Y-88386410D01*
X151794046Y-88403739D01*
X151718242Y-88418134D01*
X151643271Y-88429396D01*
X151596876Y-88434783D01*
X151583122Y-88435864D01*
X151565842Y-88436713D01*
X151545936Y-88437329D01*
X151524304Y-88437713D01*
X151501847Y-88437865D01*
X151479465Y-88437784D01*
X151458058Y-88437470D01*
X151438527Y-88436924D01*
X151421772Y-88436145D01*
X151408693Y-88435133D01*
X151405771Y-88434803D01*
X151357644Y-88427101D01*
X151313278Y-88416442D01*
X151272693Y-88402833D01*
X151235913Y-88386281D01*
X151202956Y-88366793D01*
X151190357Y-88357808D01*
X151162485Y-88334111D01*
X151138707Y-88307997D01*
X151118783Y-88279136D01*
X151102472Y-88247199D01*
X151094275Y-88226296D01*
X151087956Y-88206987D01*
X151083438Y-88189431D01*
X151080478Y-88172095D01*
X151078830Y-88153448D01*
X151078252Y-88131961D01*
X151078248Y-88125593D01*
X151078385Y-88086576D01*
X151062590Y-88084957D01*
X151046795Y-88083339D01*
X151029736Y-88094946D01*
X151012676Y-88106553D01*
X151011971Y-88129534D01*
X151013042Y-88161744D01*
X151017967Y-88195431D01*
X151026445Y-88229588D01*
X151038179Y-88263208D01*
X151052870Y-88295285D01*
X151069657Y-88323962D01*
X151094193Y-88356774D01*
X151122306Y-88386339D01*
X151153984Y-88412649D01*
X151189212Y-88435697D01*
X151227975Y-88455476D01*
X151270260Y-88471978D01*
X151316051Y-88485197D01*
X151365335Y-88495126D01*
X151418098Y-88501756D01*
X151424165Y-88502288D01*
X151443351Y-88503440D01*
X151466266Y-88504063D01*
X151491833Y-88504181D01*
X151518974Y-88503821D01*
X151546613Y-88503010D01*
X151573672Y-88501773D01*
X151599074Y-88500135D01*
X151621742Y-88498124D01*
X151628696Y-88497353D01*
X151705758Y-88486672D01*
X151783900Y-88472752D01*
X151862359Y-88455807D01*
X151940372Y-88436049D01*
X152017179Y-88413691D01*
X152092018Y-88388945D01*
X152164126Y-88362024D01*
X152232742Y-88333141D01*
X152257519Y-88321800D01*
X152317409Y-88292174D01*
X152374890Y-88260605D01*
X152429644Y-88227323D01*
X152481355Y-88192560D01*
X152529708Y-88156548D01*
X152574385Y-88119519D01*
X152615071Y-88081703D01*
X152651449Y-88043332D01*
X152673167Y-88017539D01*
X152683329Y-88005158D01*
X152690981Y-87996607D01*
X152696308Y-87991697D01*
X152699493Y-87990240D01*
X152699730Y-87990285D01*
X152709725Y-87992780D01*
X152723746Y-87995610D01*
X152741003Y-87998661D01*
X152760705Y-88001818D01*
X152782062Y-88004969D01*
X152804283Y-88007997D01*
X152826576Y-88010789D01*
X152848152Y-88013231D01*
X152868220Y-88015208D01*
X152877762Y-88016012D01*
X152898511Y-88017203D01*
X152921492Y-88017670D01*
X152947009Y-88017395D01*
X152975366Y-88016358D01*
X153006869Y-88014543D01*
X153041823Y-88011929D01*
X153080531Y-88008500D01*
X153123300Y-88004236D01*
X153170433Y-87999119D01*
X153184981Y-87997471D01*
X153252135Y-87989370D01*
X153323732Y-87979916D01*
X153399583Y-87969144D01*
X153479497Y-87957088D01*
X153563283Y-87943784D01*
X153650750Y-87929265D01*
X153741708Y-87913566D01*
X153835966Y-87896722D01*
X153933333Y-87878769D01*
X154033619Y-87859740D01*
X154136632Y-87839670D01*
X154242183Y-87818594D01*
X154350080Y-87796547D01*
X154460133Y-87773564D01*
X154572152Y-87749679D01*
X154685945Y-87724926D01*
X154705352Y-87720657D01*
X154726975Y-87715927D01*
X154747593Y-87711482D01*
X154766624Y-87707445D01*
X154783484Y-87703935D01*
X154797589Y-87701074D01*
X154808356Y-87698982D01*
X154815202Y-87697780D01*
X154816629Y-87697585D01*
X154835403Y-87697642D01*
X154855267Y-87701479D01*
X154874974Y-87708639D01*
X154893279Y-87718666D01*
X154908935Y-87731103D01*
X154909424Y-87731581D01*
X154916801Y-87740057D01*
X154925869Y-87752486D01*
X154936370Y-87768394D01*
X154948044Y-87787306D01*
X154960631Y-87808748D01*
X154973871Y-87832247D01*
X154987504Y-87857328D01*
X155001272Y-87883518D01*
X155014913Y-87910341D01*
X155028169Y-87937324D01*
X155040780Y-87963993D01*
X155052485Y-87989874D01*
X155058472Y-88003666D01*
X155077315Y-88050939D01*
X155092317Y-88095460D01*
X155103473Y-88137204D01*
X155110779Y-88176151D01*
X155114234Y-88212277D01*
X155113833Y-88245560D01*
X155109574Y-88275977D01*
X155101922Y-88302272D01*
X155095352Y-88316166D01*
X155086051Y-88331192D01*
X155075218Y-88345659D01*
X155064050Y-88357874D01*
X155059947Y-88361590D01*
X155049394Y-88369757D01*
X155037999Y-88376968D01*
X155025387Y-88383298D01*
X155011185Y-88388822D01*
X154995021Y-88393616D01*
X154976521Y-88397756D01*
X154955313Y-88401316D01*
X154931022Y-88404373D01*
X154903277Y-88407002D01*
X154871703Y-88409278D01*
X154835928Y-88411277D01*
X154808162Y-88412554D01*
X154794605Y-88413088D01*
X154776894Y-88413715D01*
X154755714Y-88414415D01*
X154731747Y-88415168D01*
X154705677Y-88415951D01*
X154678188Y-88416745D01*
X154649962Y-88417528D01*
X154621684Y-88418281D01*
X154607381Y-88418648D01*
X154534719Y-88420565D01*
X154466484Y-88422528D01*
X154402266Y-88424558D01*
X154341652Y-88426674D01*
X154284233Y-88428897D01*
X154229597Y-88431247D01*
X154177333Y-88433745D01*
X154127031Y-88436410D01*
X154078279Y-88439262D01*
X154030667Y-88442322D01*
X153983783Y-88445611D01*
X153937217Y-88449147D01*
X153890557Y-88452952D01*
X153865943Y-88455059D01*
X153761434Y-88464875D01*
X153660971Y-88475858D01*
X153563873Y-88488149D01*
X153469460Y-88501888D01*
X153377053Y-88517215D01*
X153285972Y-88534270D01*
X153195536Y-88553195D01*
X153105066Y-88574128D01*
X153013882Y-88597210D01*
X152921303Y-88622582D01*
X152826651Y-88650384D01*
X152729245Y-88680757D01*
X152655210Y-88704897D01*
X152616363Y-88717856D01*
X152580412Y-88730038D01*
X152546965Y-88741626D01*
X152515630Y-88752802D01*
X152486014Y-88763748D01*
X152457726Y-88774647D01*
X152430374Y-88785682D01*
X152403565Y-88797035D01*
X152376908Y-88808888D01*
X152350011Y-88821425D01*
X152322481Y-88834827D01*
X152293927Y-88849277D01*
X152263956Y-88864959D01*
X152232176Y-88882053D01*
X152198196Y-88900743D01*
X152161624Y-88921212D01*
X152122066Y-88943641D01*
X152079132Y-88968213D01*
X152034724Y-88993788D01*
X152000306Y-89013624D01*
X151969607Y-89031252D01*
X151942175Y-89046919D01*
X151917562Y-89060873D01*
X151895318Y-89073363D01*
X151874993Y-89084636D01*
X151856136Y-89094941D01*
X151838299Y-89104525D01*
X151821031Y-89113636D01*
X151803882Y-89122523D01*
X151786404Y-89131433D01*
X151771048Y-89139162D01*
X151726259Y-89161051D01*
X151684576Y-89180225D01*
X151645282Y-89196930D01*
X151607658Y-89211415D01*
X151570986Y-89223927D01*
X151534550Y-89234716D01*
X151497629Y-89244028D01*
X151459508Y-89252111D01*
X151426955Y-89257979D01*
X151386308Y-89264412D01*
X151348878Y-89269468D01*
X151313278Y-89273258D01*
X151278120Y-89275896D01*
X151242020Y-89277492D01*
X151203589Y-89278158D01*
X151177171Y-89278149D01*
X151158939Y-89278012D01*
X151141766Y-89277835D01*
X151126402Y-89277630D01*
X151113598Y-89277407D01*
X151104102Y-89277178D01*
X151098667Y-89276955D01*
X151098552Y-89276947D01*
X151036121Y-89270765D01*
X150974537Y-89261409D01*
X150914390Y-89249029D01*
X150856264Y-89233776D01*
X150800747Y-89215800D01*
X150748426Y-89195253D01*
X150708886Y-89176875D01*
X150650028Y-89144716D01*
X150592684Y-89108002D01*
X150536906Y-89066788D01*
X150482747Y-89021130D01*
X150430259Y-88971086D01*
X150379494Y-88916710D01*
X150330504Y-88858060D01*
X150283342Y-88795192D01*
X150238060Y-88728161D01*
X150194710Y-88657024D01*
X150153344Y-88581837D01*
X150150377Y-88576140D01*
X150125001Y-88524703D01*
X150101334Y-88471393D01*
X150079132Y-88415569D01*
X150058147Y-88356594D01*
X150038134Y-88293827D01*
X150026818Y-88255234D01*
X150021630Y-88237002D01*
X149853124Y-88169030D01*
X149826054Y-88158076D01*
X149800329Y-88147600D01*
X149776297Y-88137746D01*
X149754304Y-88128662D01*
X149734699Y-88120491D01*
X149717827Y-88113380D01*
X149704038Y-88107474D01*
X149693676Y-88102918D01*
X149687091Y-88099859D01*
X149684628Y-88098441D01*
X149684619Y-88098409D01*
X149686385Y-88096437D01*
X149691507Y-88091490D01*
X149699724Y-88083808D01*
X149710775Y-88073629D01*
X149724396Y-88061189D01*
X149740327Y-88046728D01*
X149758305Y-88030482D01*
X149778069Y-88012690D01*
X149799357Y-87993590D01*
X149821906Y-87973419D01*
X149839438Y-87957777D01*
X149994257Y-87819794D01*
X150004116Y-87792558D01*
X150023546Y-87744507D01*
X150046344Y-87698631D01*
X150072790Y-87654513D01*
X150103162Y-87611736D01*
X150137739Y-87569883D01*
X150176801Y-87528536D01*
X150188039Y-87517515D01*
X150234198Y-87476250D01*
X150283975Y-87438069D01*
X150337189Y-87403064D01*
X150393659Y-87371324D01*
X150453203Y-87342941D01*
X150515639Y-87318004D01*
X150580785Y-87296605D01*
X150648460Y-87278835D01*
X150680057Y-87271972D01*
X150710501Y-87266050D01*
X150737739Y-87261407D01*
X150763186Y-87257888D01*
X150788256Y-87255335D01*
X150814364Y-87253592D01*
X150842925Y-87252501D01*
X150859067Y-87252143D01*
X150891136Y-87251853D01*
X150919564Y-87252271D01*
%TD*%
D13*
%TO.C,REF\u002A\u002A*%
X154940000Y-112395000D03*
%TD*%
%TO.C,REF\u002A\u002A*%
X139065000Y-87630000D03*
%TD*%
D14*
%TO.C,J3*%
X137160000Y-111760000D03*
X137160000Y-109220000D03*
X137160000Y-106680000D03*
X137160000Y-104140000D03*
X137160000Y-101600000D03*
X137160000Y-99060000D03*
X137160000Y-96520000D03*
X137160000Y-93980000D03*
X137160000Y-91440000D03*
X137160000Y-88900000D03*
%TD*%
D15*
%TO.C,J2*%
X152400000Y-91440000D03*
D16*
X154940000Y-91440000D03*
X152400000Y-93980000D03*
X154940000Y-93980000D03*
X152400000Y-96520000D03*
X154940000Y-96520000D03*
X152400000Y-99060000D03*
X154940000Y-99060000D03*
X152400000Y-101600000D03*
X154940000Y-101600000D03*
X152400000Y-104140000D03*
X154940000Y-104140000D03*
X152400000Y-106680000D03*
X154940000Y-106680000D03*
X152400000Y-109220000D03*
X154940000Y-109220000D03*
%TD*%
D17*
%TO.C,RN2*%
X141235000Y-93910000D03*
D18*
X141235000Y-93110000D03*
X141235000Y-92310000D03*
D17*
X141235000Y-91510000D03*
X139435000Y-91510000D03*
D18*
X139435000Y-92310000D03*
X139435000Y-93110000D03*
D17*
X139435000Y-93910000D03*
%TD*%
%TO.C,RN1*%
X141235000Y-104070000D03*
D18*
X141235000Y-103270000D03*
X141235000Y-102470000D03*
D17*
X141235000Y-101670000D03*
X139435000Y-101670000D03*
D18*
X139435000Y-102470000D03*
X139435000Y-103270000D03*
D17*
X139435000Y-104070000D03*
%TD*%
D19*
%TO.C,U1*%
X143575000Y-91440000D03*
X143575000Y-92710000D03*
X143575000Y-93980000D03*
X143575000Y-95250000D03*
X143575000Y-96520000D03*
X143575000Y-97790000D03*
X143575000Y-99060000D03*
X148525000Y-99060000D03*
X148525000Y-97790000D03*
X148525000Y-96520000D03*
X148525000Y-95250000D03*
X148525000Y-93980000D03*
X148525000Y-92710000D03*
X148525000Y-91440000D03*
%TD*%
D15*
%TO.C,J1*%
X134595000Y-111760000D03*
D16*
X134595000Y-109220000D03*
X134595000Y-106680000D03*
X134595000Y-104140000D03*
X134595000Y-101600000D03*
X134595000Y-99060000D03*
X134595000Y-96520000D03*
X134595000Y-93980000D03*
X134595000Y-91440000D03*
X134595000Y-88900000D03*
%TD*%
D19*
%TO.C,U2*%
X143575000Y-101600000D03*
X143575000Y-102870000D03*
X143575000Y-104140000D03*
X143575000Y-105410000D03*
X143575000Y-106680000D03*
X143575000Y-107950000D03*
X143575000Y-109220000D03*
X148525000Y-109220000D03*
X148525000Y-107950000D03*
X148525000Y-106680000D03*
X148525000Y-105410000D03*
X148525000Y-104140000D03*
X148525000Y-102870000D03*
X148525000Y-101600000D03*
%TD*%
M02*
