%TF.GenerationSoftware,KiCad,Pcbnew,(6.0.9)*%
%TF.CreationDate,2022-12-02T16:15:21-08:00*%
%TF.ProjectId,Byte4066,42797465-3430-4363-962e-6b696361645f,rev?*%
%TF.SameCoordinates,Original*%
%TF.FileFunction,Paste,Top*%
%TF.FilePolarity,Positive*%
%FSLAX46Y46*%
G04 Gerber Fmt 4.6, Leading zero omitted, Abs format (unit mm)*
G04 Created by KiCad (PCBNEW (6.0.9)) date 2022-12-02 16:15:21*
%MOMM*%
%LPD*%
G01*
G04 APERTURE LIST*
G04 Aperture macros list*
%AMRoundRect*
0 Rectangle with rounded corners*
0 $1 Rounding radius*
0 $2 $3 $4 $5 $6 $7 $8 $9 X,Y pos of 4 corners*
0 Add a 4 corners polygon primitive as box body*
4,1,4,$2,$3,$4,$5,$6,$7,$8,$9,$2,$3,0*
0 Add four circle primitives for the rounded corners*
1,1,$1+$1,$2,$3*
1,1,$1+$1,$4,$5*
1,1,$1+$1,$6,$7*
1,1,$1+$1,$8,$9*
0 Add four rect primitives between the rounded corners*
20,1,$1+$1,$2,$3,$4,$5,0*
20,1,$1+$1,$4,$5,$6,$7,0*
20,1,$1+$1,$6,$7,$8,$9,0*
20,1,$1+$1,$8,$9,$2,$3,0*%
G04 Aperture macros list end*
%ADD10R,0.800000X0.500000*%
%ADD11R,0.800000X0.400000*%
%ADD12RoundRect,0.150000X-0.825000X-0.150000X0.825000X-0.150000X0.825000X0.150000X-0.825000X0.150000X0*%
G04 APERTURE END LIST*
D10*
%TO.C,RN2*%
X141235000Y-93910000D03*
D11*
X141235000Y-93110000D03*
X141235000Y-92310000D03*
D10*
X141235000Y-91510000D03*
X139435000Y-91510000D03*
D11*
X139435000Y-92310000D03*
X139435000Y-93110000D03*
D10*
X139435000Y-93910000D03*
%TD*%
%TO.C,RN1*%
X141235000Y-104070000D03*
D11*
X141235000Y-103270000D03*
X141235000Y-102470000D03*
D10*
X141235000Y-101670000D03*
X139435000Y-101670000D03*
D11*
X139435000Y-102470000D03*
X139435000Y-103270000D03*
D10*
X139435000Y-104070000D03*
%TD*%
D12*
%TO.C,U1*%
X143575000Y-91440000D03*
X143575000Y-92710000D03*
X143575000Y-93980000D03*
X143575000Y-95250000D03*
X143575000Y-96520000D03*
X143575000Y-97790000D03*
X143575000Y-99060000D03*
X148525000Y-99060000D03*
X148525000Y-97790000D03*
X148525000Y-96520000D03*
X148525000Y-95250000D03*
X148525000Y-93980000D03*
X148525000Y-92710000D03*
X148525000Y-91440000D03*
%TD*%
%TO.C,U2*%
X143575000Y-101600000D03*
X143575000Y-102870000D03*
X143575000Y-104140000D03*
X143575000Y-105410000D03*
X143575000Y-106680000D03*
X143575000Y-107950000D03*
X143575000Y-109220000D03*
X148525000Y-109220000D03*
X148525000Y-107950000D03*
X148525000Y-106680000D03*
X148525000Y-105410000D03*
X148525000Y-104140000D03*
X148525000Y-102870000D03*
X148525000Y-101600000D03*
%TD*%
M02*
