%TF.GenerationSoftware,KiCad,Pcbnew,(6.0.9)*%
%TF.CreationDate,2022-12-02T16:15:21-08:00*%
%TF.ProjectId,Byte4066,42797465-3430-4363-962e-6b696361645f,rev?*%
%TF.SameCoordinates,Original*%
%TF.FileFunction,Legend,Bot*%
%TF.FilePolarity,Positive*%
%FSLAX46Y46*%
G04 Gerber Fmt 4.6, Leading zero omitted, Abs format (unit mm)*
G04 Created by KiCad (PCBNEW (6.0.9)) date 2022-12-02 16:15:21*
%MOMM*%
%LPD*%
G01*
G04 APERTURE LIST*
%ADD10C,0.150000*%
%ADD11C,1.152000*%
%ADD12R,1.700000X1.700000*%
%ADD13O,1.700000X1.700000*%
G04 APERTURE END LIST*
D10*
X150034047Y-112482380D02*
X150034047Y-113196666D01*
X150081666Y-113339523D01*
X150176904Y-113434761D01*
X150319761Y-113482380D01*
X150415000Y-113482380D01*
X149081666Y-113482380D02*
X149557857Y-113482380D01*
X149557857Y-112482380D01*
X148176904Y-113387142D02*
X148224523Y-113434761D01*
X148367380Y-113482380D01*
X148462619Y-113482380D01*
X148605476Y-113434761D01*
X148700714Y-113339523D01*
X148748333Y-113244285D01*
X148795952Y-113053809D01*
X148795952Y-112910952D01*
X148748333Y-112720476D01*
X148700714Y-112625238D01*
X148605476Y-112530000D01*
X148462619Y-112482380D01*
X148367380Y-112482380D01*
X148224523Y-112530000D01*
X148176904Y-112577619D01*
X147462619Y-112482380D02*
X147462619Y-113196666D01*
X147510238Y-113339523D01*
X147605476Y-113434761D01*
X147748333Y-113482380D01*
X147843571Y-113482380D01*
X146510238Y-113482380D02*
X146986428Y-113482380D01*
X146986428Y-112482380D01*
X145605476Y-113387142D02*
X145653095Y-113434761D01*
X145795952Y-113482380D01*
X145891190Y-113482380D01*
X146034047Y-113434761D01*
X146129285Y-113339523D01*
X146176904Y-113244285D01*
X146224523Y-113053809D01*
X146224523Y-112910952D01*
X146176904Y-112720476D01*
X146129285Y-112625238D01*
X146034047Y-112530000D01*
X145891190Y-112482380D01*
X145795952Y-112482380D01*
X145653095Y-112530000D01*
X145605476Y-112577619D01*
X144891190Y-112482380D02*
X144891190Y-113196666D01*
X144938809Y-113339523D01*
X145034047Y-113434761D01*
X145176904Y-113482380D01*
X145272142Y-113482380D01*
X143938809Y-113482380D02*
X144415000Y-113482380D01*
X144415000Y-112482380D01*
X143034047Y-113387142D02*
X143081666Y-113434761D01*
X143224523Y-113482380D01*
X143319761Y-113482380D01*
X143462619Y-113434761D01*
X143557857Y-113339523D01*
X143605476Y-113244285D01*
X143653095Y-113053809D01*
X143653095Y-112910952D01*
X143605476Y-112720476D01*
X143557857Y-112625238D01*
X143462619Y-112530000D01*
X143319761Y-112482380D01*
X143224523Y-112482380D01*
X143081666Y-112530000D01*
X143034047Y-112577619D01*
X142319761Y-112482380D02*
X142319761Y-113196666D01*
X142367380Y-113339523D01*
X142462619Y-113434761D01*
X142605476Y-113482380D01*
X142700714Y-113482380D01*
X141367380Y-113482380D02*
X141843571Y-113482380D01*
X141843571Y-112482380D01*
X140462619Y-113387142D02*
X140510238Y-113434761D01*
X140653095Y-113482380D01*
X140748333Y-113482380D01*
X140891190Y-113434761D01*
X140986428Y-113339523D01*
X141034047Y-113244285D01*
X141081666Y-113053809D01*
X141081666Y-112910952D01*
X141034047Y-112720476D01*
X140986428Y-112625238D01*
X140891190Y-112530000D01*
X140748333Y-112482380D01*
X140653095Y-112482380D01*
X140510238Y-112530000D01*
X140462619Y-112577619D01*
%LPC*%
D11*
%TO.C,REF\u002A\u002A*%
X154940000Y-112395000D03*
%TD*%
%TO.C,REF\u002A\u002A*%
X139065000Y-87630000D03*
%TD*%
D12*
%TO.C,J2*%
X152400000Y-91440000D03*
D13*
X154940000Y-91440000D03*
X152400000Y-93980000D03*
X154940000Y-93980000D03*
X152400000Y-96520000D03*
X154940000Y-96520000D03*
X152400000Y-99060000D03*
X154940000Y-99060000D03*
X152400000Y-101600000D03*
X154940000Y-101600000D03*
X152400000Y-104140000D03*
X154940000Y-104140000D03*
X152400000Y-106680000D03*
X154940000Y-106680000D03*
X152400000Y-109220000D03*
X154940000Y-109220000D03*
%TD*%
D12*
%TO.C,J1*%
X134595000Y-111760000D03*
D13*
X134595000Y-109220000D03*
X134595000Y-106680000D03*
X134595000Y-104140000D03*
X134595000Y-101600000D03*
X134595000Y-99060000D03*
X134595000Y-96520000D03*
X134595000Y-93980000D03*
X134595000Y-91440000D03*
X134595000Y-88900000D03*
%TD*%
M02*
